<?xml version="1.0" encoding="utf-8"?>
<!-- Generator: Adobe Illustrator 18.0.0, SVG Export Plug-In . SVG Version: 6.00 Build 0)  -->
<!DOCTYPE svg PUBLIC "-//W3C//DTD SVG 1.1//EN" "http://www.w3.org/Graphics/SVG/1.1/DTD/svg11.dtd">
<svg version="1.1" id="图层_1" xmlns="http://www.w3.org/2000/svg" xmlns:xlink="http://www.w3.org/1999/xlink" x="0px" y="0px"
	 viewBox="0 0 375 65" enable-background="new 0 0 375 65" xml:space="preserve">
<g>
	<path d="M16.8,39.8c1.7-1.4,4-5.7,4.7-9.8c2.1,6.5,0.7,14.4-1.5,12.5L16.8,39.8z M24.6,25.1l6.2,0.7L29.4,27v17.1
		c0,0.8,0.3,1.3,1.1,1.3h2.8c2.4,0,3.3-0.9,2.9-5.7l3.7,1c1.1,0.3,1.4,1,1.1,2.4C40.4,47.6,38.5,49,35,49h-6.6c-1.9,0-3.8-1.3-3.8-4
		V25.1z M33.9,29.1c-0.6-2.7-3.7-7.9-6-9.7c7.7,2.2,10.4,5.5,9.1,6.9L33.9,29.1z M42.4,41.7c0.1-2.7-1.3-9.2-3.1-11.9
		c6.9,3.8,8.5,8.3,6.7,9.6L42.4,41.7z"/>
	<path d="M51.5,48.7l-0.8-1.5h12.5v-5.3h-9.9l-0.8-1.5h10.6v-4.9h-4.4v1.5H54V19.3l6.2,0.7l-1.3,1.1v0.3h13.6l1-1.4l5,1.7l-1.2,1.7
		v13.5h-4.8v-1.5h-4.4v4.9h7.5l1.4-1.3l1.7,2.8H68.1v5.3h9.5l1.4-1.3l1.7,2.8H51.5z M58.9,27.7h4.4v-4.8h-4.4V27.7z M58.9,33.9h4.4
		v-4.7h-4.4V33.9z M68.1,27.7h4.4v-4.8h-4.4V27.7z M68.1,33.9h4.4v-4.7h-4.4V33.9z"/>
	<path d="M88,29.4h-2.8l-0.8-1.5H88v-6.8l6.1,0.7L92.8,23v4.9h2.9v-8.7l6.2,0.7l-1.4,1.1v6.9h3.3v-8.7l6.2,0.7l-1.4,1.1v6.9h2.5
		l1.4-1.3l1.7,2.8h-5.6v12.2H104v-1.5h-3.3v1.5h-4.9V29.4h-2.9v16.4h17.6l1.4-1.3l1.7,2.8H92.8v1.5H88V29.4z M100.6,38.5h3.3v-9
		h-3.3V38.5z"/>
	<path d="M121.1,33.2v-14l6.2,0.7L126,21h14.5l0.9-1.3l5,1.6l-1.1,1.6v10.3h-4.8V32h-4.2c3.4,2.6,7.3,4,12,4.2l-1.8,3.1
		c-0.8,1.2-1.5,1.5-2.9,0.8c-0.9-0.4-1.9-1-2.9-1.7L140,39v10.4h-4.9V37.1l4.1,0.5c-1.7-1.3-3.4-3-4.8-4.9c-1.6,2-3.9,3.6-6.5,4.8
		l1.6,0.2c0.6,0.1,1,0.5,1,1.2c-0.8,6-4.7,9.5-11.3,10.5c4.8-3.2,5.8-5.6,6.2-10.8c-2.6,0.9-5.1,1.5-7.2,1.6
		c4.1-1.6,8.5-4.9,10.9-8.2h-3.1v1.2H121.1z M125.9,25.7h4.8v-3.2h-4.8V25.7z M125.9,30.5h4.8v-3.3h-4.8V30.5z M135.6,25.7h4.8v-3.2
		h-4.8V25.7z M135.6,30.5h4.8v-3.3h-4.8V30.5z"/>
	<path d="M165.9,24H179l1.4-1.3l1.7,2.8h-16.9c-1.2,2.5-2.7,4.9-4.4,6.9v16.9H156V37.1c-1.3,1-2.7,1.9-4.1,2.6
		c1.5-1.6,2.8-3.3,4.1-5.3v-4.5l2.4,0.3c0.7-1.5,1.4-3,2-4.6h-6.4l-0.8-1.5h7.7c0.5-1.6,0.9-3.2,1.3-4.8l4.1,0.9
		c0.6,0.2,1,0.8,0.7,1.5C166.5,22.4,166.2,23.2,165.9,24z M175.7,28.6l-1.6,1.1v5.9h4l1.4-1.3l1.7,2.8h-7.1v9.5h5l1.4-1.2l1.7,2.8
		h-19.7l-0.8-1.5h7.5v-9.5h-5.8l-0.8-1.5h6.6v-7.8L175.7,28.6z"/>
	<path d="M186.4,41.7l-0.8-1.5h16.4l1.4-1.3l1.7,2.8H186.4z M185.7,23.5c2.2-0.7,3.8-2.3,4.7-4.3c0.1,0.6,0.3,1.3,0.3,1.9h19.5
		l0.9-1.2l4.6,2.3l-6.2,4.8l0.5-4.2h-19.2c0.2,4.4-1.7,6.4-3.6,3.3L185.7,23.5z M193.8,23.6l5.9,1.7l-1.6,0.7l-0.7,2.7h12l1.4-1.2
		l1.7,2.8H197l-1.2,4.4H207l1.1-1.5l4.9,2.2l-1.1,1.6v3.8c0,4.4-1.9,7.1-4.1,8.2c-1.2,0.6-2,0.3-2.7-0.5l-3-3.8
		c3.6,0.6,4.9-0.2,4.9-4.6v-4h-11.6l-0.4,1.6l-4.7-1.2L193.8,23.6z"/>
	<path d="M225.2,19.1l4.2,1c0.7,0.1,1,0.5,0.7,1.1c-0.8,2.3-2.4,5-4.3,7.4l3.4,0.5l-1,0.9v19.3h-4.9V31.4c-1.4,1.4-2.8,2.6-4,3.4
		C221.9,30.5,224.2,24.2,225.2,19.1z M241,41v8.4h-4.9V26.3h-0.5c-1.9,2.6-4.3,5.2-6.8,6.8c2.1-3.9,4-10.1,4.6-13.8l4.1,0.9
		c0.7,0.1,0.9,0.4,0.7,1.1c-0.2,0.9-0.8,2.2-1.7,3.6h9.9l1.4-1.3l1.7,2.8H241v5.8h4.6l1.4-1.3l1.7,2.8H241v5.8h4.6l1.4-1.3l1.7,2.8
		H241z"/>
	<path d="M255.4,40.5V24.1l6,0.7l-1.4,1.1v0.4h5.8v-7.2l6.2,0.7l-1.3,1.1v5.4h5.7l0.8-1.3l5.1,1.9l-1.3,2v11.5h-4.8V39h-5.6v10.4
		h-4.9V39h-5.8v1.5H255.4z M260.1,37.4h5.8v-9.5h-5.8V37.4z M270.8,37.4h5.6v-9.5h-5.6V37.4z"/>
	<path d="M291.5,19.1l4.4,0.8c0.7,0.1,0.9,0.7,0.7,1.2c-0.8,2.3-2.4,5.1-4.2,7.7l3.2,0.4l-1,0.9v19.2h-4.9V32.3
		c-1,1.2-2,2.2-2.8,2.8C288.9,31,290.8,24.5,291.5,19.1z M303.6,43.6h-3l-0.8-1.5h3.8v-8.7c-2,4.4-5,8.8-8.5,11.4
		c2.3-4.3,4.7-11.9,5.6-17H297l-0.8-1.5h7.3v-7l6.2,0.7l-1.4,1.1v5.2h5.5l1.4-1.3l1.7,2.8h-7.7c1.7,4.7,5.4,8.9,7.9,10.2l-2.2,4.3
		c-0.6,1.2-1.4,1.2-2.2,0.2c-1.8-2.3-3.6-7.9-4.4-12.5v12.2h0.6l1.4-1.3l1.7,2.8h-3.7v5.7h-4.9V43.6z"/>
	<path d="M328.3,33.2v8.4c1-0.3,2.2-0.6,3.4-1c-1.5,2.4-5.2,5.7-7.6,6.6c-0.5,0.2-1.3,0.2-1.6-0.4l-1.8-4.1c0.7,0,1.7-0.1,2.7-0.2
		v-9.3h-1.7l-0.8-1.5h2.5V23h-1.9l-0.8-1.5h7.6l1.4-1.3l1.6,2.8h-3.1v8.7h0.1l1.4-1.3l1.7,2.8H328.3z M343,26.1v4.4
		c0,2.4-0.3,4.7-0.9,6.7l4.6,0.8l-1,0.6v6c0,1.1,0.9,0.9,1.1,0.2c0.3-0.8,0.4-2.4,0.4-4L350,42c0.9,0.5,1.1,1,0.9,2.1
		c-0.7,3.8-1.6,5.2-4.2,5.2h-2.4c-2,0-3.4-1.3-3.4-4.1v-4.8c-2.4,4.9-6.9,8.2-12.8,9.1c8-4.5,10.1-12,10.1-19.3v-5.8l5.8,0.9
		L343,26.1z M332.3,37V19.5l5.7,0.7l-1.2,1v0.2h7.6l0.9-1.2l4.5,1.6l-1,1.4V37h-4.6V22.9h-7.5V37H332.3z"/>
</g>
</svg>
