<svg id="图层_1" data-name="图层 1" xmlns="http://www.w3.org/2000/svg" viewBox="0 0 53.07 53.2"><path d="M18.44,17.38C20.75,20.16,25,22.16,28.79,23l-.06.29a3.52,3.52,0,0,0-2.47,2.81A15.72,15.72,0,0,1,18,17.56V26c0,.29-1.3.91-2.5.91h-.65V20.52A27.19,27.19,0,0,1,4.45,26.24l-.18-.34a23.79,23.79,0,0,0,9.12-8.52H11.08V18c0,.28-1.38,1-2.65,1H8V8.07l3.33,1.27h3.53V6.87H5.07l-.2-.73h10V2.5l4.11.42c-.05.36-.26.62-1,.73V6.14h5.1l1.82-2.36s2,1.58,3.27,2.68c-.08.28-.36.41-.75.41H18V9.34h3.54L23,7.76,26,10a1.62,1.62,0,0,1-1,.55v7.12a4.54,4.54,0,0,1-2.68.91h-.54V17.38Zm-7.36-7.31V13h3.74V10.07Zm0,6.58h3.74V13.74H11.08ZM18,10.07V13h3.8V10.07Zm3.8,6.58V13.74H18v2.91Z" transform="translate(-4.16 -2.5)"/><path d="M13.71,48.53c-.13.24-.37.39-1,.29A23.12,23.12,0,0,1,4.4,54l-.24-.26a24.28,24.28,0,0,0,6-7.31ZM25.38,32.41S27.43,34,28.63,35c-.08.28-.36.41-.75.41H4.71L4.5,34.7H16.1L16,34.65a9.06,9.06,0,0,0-2.88-3.93l.18-.15c5.9-.21,6.27,3.17,4.71,4.13h5.59Zm-7.2,12.35v6.71c0,2-.52,3.38-4.14,3.64A3.77,3.77,0,0,0,13.47,53a3.62,3.62,0,0,0-2.39-1v-.34s2.76.18,3.33.18.57-.15.57-.46V44.76H12v.57c0,.29-1.43,1-2.76,1H8.79V37l3.38,1.3h8.61l1.48-1.59,3.07,2.32a1.74,1.74,0,0,1-1.07.54v5.65a5,5,0,0,1-2.65.83H21V44.76ZM21,44V39.09H12V44Zm-1,3c9.68,1.77,8,8.09,4.74,6.34a22.32,22.32,0,0,0-5-6.16Z" transform="translate(-4.16 -2.5)"/><path d="M43.35,24.06a3.8,3.8,0,0,1-2.37.86h-.49V23h-4V25c0,.21-.89.83-2.29.83h-.49V14l3.12,1.22H37V9.76H32.53L32.32,9H37V3.21l3.9.34c0,.36-.23.62-.93.73V9h.88l1.56-2s1.77,1.43,2.83,2.39c-.07.28-.36.41-.72.41H39.92v5.46h.31l1.32-1.45,2.76,2.08a1.59,1.59,0,0,1-1,.52Zm-2.86-1.79V15.93h-4v6.34ZM54.74,9.84a23.66,23.66,0,0,1-3.67,10.43,17.27,17.27,0,0,0,6.11,4.44L57.1,25a3.25,3.25,0,0,0-2.7,2.5,15.53,15.53,0,0,1-4.89-5.25,20.4,20.4,0,0,1-8.32,5.3L41,27.26A20.1,20.1,0,0,0,48.39,20a34.26,34.26,0,0,1-2.08-8,16.73,16.73,0,0,1-2.88,2.94l-.32-.24A32.23,32.23,0,0,0,46.57,3.11l4.29,1.06c-.1.34-.44.58-1,.6a27.43,27.43,0,0,1-1.77,4.32h4.55L54.24,7S56,8.44,57.15,9.43c-.07.28-.36.41-.75.41Zm-7.08,0a15.37,15.37,0,0,1-.91,1.48A21.77,21.77,0,0,0,49.38,18a26.07,26.07,0,0,0,2-8.14Z" transform="translate(-4.16 -2.5)"/><path d="M54.71,44.58S56.3,46,57.23,46.87c-.08.28-.34.41-.7.41H53.2v3.85a4.17,4.17,0,0,1-2.44.83h-.5V50.4H46.1v1.82c0,2.06-.52,3.17-4.21,3.49a2.92,2.92,0,0,0-.73-2,4.78,4.78,0,0,0-2.65-1v-.36s3.23.21,3.85.21.65-.16.65-.5V50.4H35.39l-.23-.73H43V47.28H32.74l-.21-.73H43V44.16H35.6l-.23-.7H43V41.07H38.93v.62c0,.26-1.41.91-2.65.91h-.42V35.74L39.14,37H43v-2H32.82l-.24-.73H43v-3l4,.39c0,.39-.29.65-.94.75V34.2h5.62l1.74-2.13s1.93,1.43,3.15,2.44c0,.29-.34.42-.73.42H46.1v2h4l1.41-1.48,2.91,2.16a1.63,1.63,0,0,1-.94.49v3a5,5,0,0,1-2.57.78h-.55v-.88H46.1v2.39H50L51.36,42l2.83,2.1a1.58,1.58,0,0,1-1,.52v1.95h.13ZM43,40.34V37.71H38.93v2.63Zm3.09-2.63v2.63h4.24V37.71Zm0,8.84h4.16V44.16H46.1Zm4.16.73H46.1v2.39h4.16Z" transform="translate(-4.16 -2.5)"/></svg>